<?xml version="1.0" standalone="no"?><!DOCTYPE svg PUBLIC "-//W3C//DTD SVG 1.1//EN" "http://www.w3.org/Graphics/SVG/1.1/DTD/svg11.dtd"><svg t="1772715784577" class="icon" viewBox="0 0 1024 1024" version="1.1" xmlns="http://www.w3.org/2000/svg" p-id="3601" xmlns:xlink="http://www.w3.org/1999/xlink" width="200" height="200"><path d="M717.723788 1024H307.42886v-118.798531A475.414122 475.414122 0 0 1 489.146614 0.572653a475.63412 475.63412 0 0 1 498.953831 475.414122 475.194125 475.194125 0 0 1-270.376657 429.214694z m-344.295744-65.999184h278.29656v-96.138811l20.239749-8.359897a409.414938 409.414938 0 0 0 250.136908-377.515333A409.854933 409.854933 0 0 0 492.226575 66.571837 411.394914 411.394914 0 0 0 103.051387 462.566941a407.214965 407.214965 0 0 0 250.136907 390.935167l20.23975 8.359897z" fill="#5F37B5" p-id="3602"></path><path d="M499.046491 761.10325a32.3396 32.3396 0 0 1-20.019752-6.819915 32.999592 32.999592 0 0 1-6.159924-46.199429l142.778235-187.217686H369.908088a32.999592 32.999592 0 0 1-28.599647-16.499796 33.219589 33.219589 0 0 1 0-32.999592L488.486622 220.569933a32.999592 32.999592 0 0 1 56.979295 33.439587l-117.918542 201.297511h254.316856a32.999592 32.999592 0 0 1 26.179676 53.019344L524.786173 748.563405a33.219589 33.219589 0 0 1-25.739682 12.539845z" fill="#5F37B5" p-id="3603"></path></svg>